<svg width="28" height="25" viewBox="0 0 28 25" xmlns="http://www.w3.org/2000/svg">
  <path fill-rule="evenodd" clip-rule="evenodd" d="M8.50311 1.16224L8.50548 1.16224C7.93359 1.16286 7.41377 1.38773 7.03047 1.75294C7.41335 1.38703 7.93233 1.16224 8.50311 1.16224ZM7.03047 1.75294C6.74784 2.02304 6.53937 2.37004 6.43899 2.76027H6.43807C6.53795 2.37031 6.74683 2.0232 7.03047 1.75294ZM10.2761 4.47382C9.98816 4.89491 9.55193 5.2077 9.04173 5.33834V5.35475C9.55304 5.22117 9.99 4.90202 10.2761 4.47382Z" />
  <path d="M10.5766 3.81373H17.1165V3.60342V2.92356V2.75313H10.5766V2.80121C10.614 2.9591 10.6338 3.12375 10.6338 3.29295C10.6338 3.32139 10.6333 3.3497 10.6321 3.37787C10.6267 3.5173 10.6077 3.65333 10.5766 3.78469V3.81373Z" />
  <path fill-rule="evenodd" clip-rule="evenodd" d="M17.0592 3.29295V3.29057C17.0599 3.86246 17.2847 4.38229 17.6499 4.76558C17.284 4.38271 17.0592 3.86372 17.0592 3.29295ZM17.6499 4.76558C17.92 5.04822 18.267 5.25668 18.6573 5.35707V5.35799C18.2673 5.25811 17.9202 5.04923 17.6499 4.76558ZM20.3708 1.51999C20.7919 1.8079 21.1047 2.24413 21.2353 2.75432H21.2517C21.1182 2.24301 20.799 1.80606 20.3708 1.51999Z" />
  <path fill-rule="evenodd" clip-rule="evenodd" d="M19.1899 5.42365L19.1876 5.42365C19.7595 5.42303 20.2793 5.19816 20.6626 4.83295C20.2797 5.19886 19.7607 5.42365 19.1899 5.42365ZM20.6626 4.83295C20.9452 4.56285 21.1537 4.21585 21.2541 3.82562H21.255C21.1551 4.21558 20.9462 4.5627 20.6626 4.83295ZM17.417 2.11207C17.5878 1.86223 17.8108 1.65052 18.0705 1.49235C18.2486 1.38394 18.4438 1.30068 18.6513 1.24755V1.23467V1.23114C18.14 1.36472 17.703 1.68387 17.417 2.11207Z" />
  <path fill-rule="evenodd" clip-rule="evenodd" d="M22.7023 13.5942L22.7011 13.5922C22.7333 13.6479 22.7677 13.7015 22.804 13.7532C22.9001 13.8898 23.0099 14.0123 23.1304 14.1196C23.3506 14.3157 23.6064 14.4615 23.8796 14.5522C23.4 14.3938 22.9744 14.0656 22.7023 13.5942ZM23.9502 14.5742C24.3254 14.684 24.7301 14.691 25.1183 14.5828L25.1187 14.5836C24.7311 14.6921 24.326 14.6848 23.9502 14.5742ZM24.6837 10.403C25.0316 10.4296 25.3703 10.5415 25.6675 10.7301C25.8048 10.8173 25.9332 10.9208 26.0496 11.0397L26.0598 11.0338L26.0638 11.0315C25.6924 10.6555 25.1976 10.4367 24.6837 10.403Z" />
  <path d="M23.9618 10.4728L20.6919 4.80913L20.6285 4.84572L19.8332 5.30489L19.7734 5.33943L23.0433 11.0031L23.0849 10.9791C23.203 10.8677 23.3356 10.7682 23.4822 10.6836C23.6287 10.599 23.7812 10.5339 23.9366 10.4873L23.9618 10.4728Z" />
  <path fill-rule="evenodd" clip-rule="evenodd" d="M20.2695 5.11907L20.2674 5.12026C20.7624 4.83378 21.1001 4.37912 21.2495 3.8712C21.1008 4.37952 20.7638 4.83369 20.2695 5.11907ZM21.2495 3.8712C21.3592 3.49596 21.3662 3.09122 21.258 2.70308L21.2588 2.70262C21.3673 3.09028 21.36 3.49532 21.2495 3.8712ZM17.0782 3.13764C17.117 2.62901 17.3384 2.14001 17.7149 1.77177L17.7067 1.75756C17.3307 2.1289 17.1119 2.62378 17.0782 3.13764Z" />
  <path fill-rule="evenodd" clip-rule="evenodd" d="M21.0494 2.20847L21.0505 2.21053C20.7641 1.71557 20.3094 1.37782 19.8015 1.22848C20.3098 1.37711 20.764 1.71417 21.0494 2.20847ZM19.8015 1.22848C19.4262 1.11877 19.0215 1.11173 18.6334 1.21991L18.6329 1.21911C19.0206 1.11063 19.4256 1.11797 19.8015 1.22848ZM19.0679 5.39969C18.9853 5.39339 18.9031 5.38226 18.8219 5.36643C18.4035 5.28485 18.0104 5.07832 17.7021 4.76299L17.6878 4.77119C18.0592 5.14721 18.5541 5.36605 19.0679 5.39969Z" />
  <path fill-rule="evenodd" clip-rule="evenodd" d="M6.68079 22.9057L6.67961 22.9036C6.96609 23.3986 7.42075 23.7363 7.92867 23.8857C7.42035 23.737 6.96618 23.4 6.68079 22.9057ZM7.92867 23.8857C8.30391 23.9954 8.70865 24.0024 9.09679 23.8942L9.09725 23.895C8.70959 24.0035 8.30455 23.9962 7.92867 23.8857ZM8.66223 19.7145C9.17086 19.7533 9.65986 19.9746 10.0281 20.3512L10.0423 20.343C9.67097 19.9669 9.17609 19.7481 8.66223 19.7145Z" />
  <path d="M7.94031 19.7842L4.67038 14.1206L4.48825 14.2257L3.89947 14.5656L3.75188 14.6509L7.02181 20.3145L7.06344 20.2905C7.18147 20.1792 7.31416 20.0797 7.46069 19.9951C7.48732 19.9797 7.51414 19.965 7.54115 19.9509C7.66274 19.8874 7.78796 19.8369 7.91516 19.7988L7.94031 19.7842Z" />
  <path fill-rule="evenodd" clip-rule="evenodd" d="M4.24798 14.4305L4.24593 14.4317C4.74088 14.1452 5.07863 13.6906 5.22797 13.1826C5.07934 13.691 4.74229 14.1451 4.24798 14.4305ZM5.22797 13.1826C5.33769 12.8074 5.34473 12.4027 5.23655 12.0145L5.23735 12.0141C5.34583 12.4017 5.33849 12.8068 5.22797 13.1826ZM1.05676 12.4491C1.09555 11.9404 1.31694 11.4514 1.69347 11.0832L1.68526 11.069C1.30925 11.4403 1.09041 11.9352 1.05676 12.4491Z" />
  <path fill-rule="evenodd" clip-rule="evenodd" d="M5.02787 11.5199L5.02906 11.522C4.74258 11.027 4.28792 10.6893 3.77999 10.5399C4.28832 10.6885 4.74249 11.0256 5.02787 11.5199ZM3.77999 10.5399C3.40476 10.4302 3.00002 10.4232 2.61188 10.5313L2.61142 10.5305C2.99907 10.4221 3.40412 10.4294 3.77999 10.5399ZM3.04644 14.7111C2.74465 14.6881 2.44977 14.6008 2.18292 14.455C2.00004 14.355 1.83032 14.2275 1.68057 14.0744L1.66942 14.0809L1.66636 14.0826C2.0377 14.4586 2.53257 14.6775 3.04644 14.7111Z" />
  <path fill-rule="evenodd" clip-rule="evenodd" d="M10.3476 4.39284L10.3465 4.39489C10.5315 4.07361 10.624 3.72415 10.6321 3.37787C10.6364 3.19611 10.6175 3.01523 10.5766 2.83977C10.6963 3.34949 10.6298 3.90417 10.3476 4.39284ZM10.5724 2.82215C10.4798 2.44233 10.2835 2.08829 9.99578 1.80624L9.99623 1.80545C10.284 2.08693 10.4802 2.44138 10.5724 2.82215ZM6.59325 4.27248C6.49967 4.0775 6.43628 3.86916 6.40513 3.65519C6.36279 3.36449 6.37995 3.06339 6.46173 2.77125L6.44751 2.76304C6.30754 3.27264 6.36546 3.81063 6.59325 4.27248Z" />
  <path d="M7.01464 4.86278L3.74472 10.5265L3.80811 10.5631L4.60341 11.0222L4.66322 11.0568L7.93315 5.39308L7.89152 5.36905C7.73607 5.3225 7.58358 5.25733 7.43705 5.17273C7.29052 5.08813 7.15783 4.98866 7.0398 4.87731L7.01464 4.86278Z" />
  <path fill-rule="evenodd" clip-rule="evenodd" d="M4.22434 10.7373L4.22639 10.7385C3.73082 10.4531 3.1682 10.3879 2.65365 10.5125C3.16818 10.3871 3.73004 10.4519 4.22434 10.7373ZM2.65365 10.5125C2.27383 10.6051 1.91979 10.8014 1.63774 11.0892L1.63695 11.0887C1.91843 10.8009 2.27288 10.6048 2.65365 10.5125ZM4.10398 14.4917C3.6441 14.7124 3.10991 14.7652 2.60275 14.6232L2.59454 14.6374C3.10414 14.7774 3.64214 14.7195 4.10398 14.4917Z" />
  <path fill-rule="evenodd" clip-rule="evenodd" d="M1.31374 11.5172L1.31493 11.5151C1.02952 12.0107 0.964352 12.5733 1.08898 13.0879C0.963537 12.5734 1.02835 12.0115 1.31374 11.5172ZM1.08898 13.0879C1.18158 13.4677 1.37786 13.8217 1.66561 14.1038L1.66515 14.1046C1.37738 13.8231 1.18121 13.4687 1.08898 13.0879ZM5.06814 11.6376C5.10401 11.7123 5.13544 11.789 5.16232 11.8672C5.30086 12.2704 5.31855 12.714 5.19966 13.1388L5.21388 13.147C5.35385 12.6374 5.29593 12.0994 5.06814 11.6376Z" />
  <path fill-rule="evenodd" clip-rule="evenodd" d="M26.41 13.6189L26.4089 13.6209C26.6943 13.1253 26.7594 12.5627 26.6348 12.0482C26.7602 12.5627 26.6954 13.1246 26.41 13.6189ZM26.6348 12.0482C26.5662 11.7667 26.4406 11.4993 26.2631 11.265C26.2015 11.1837 26.1337 11.1064 26.0598 11.0338C26.0592 11.0333 26.0587 11.0328 26.0582 11.0323L26.0586 11.0315C26.3464 11.3129 26.5426 11.6674 26.6348 12.0482ZM22.6556 13.4985C22.4349 13.0386 22.3822 12.5044 22.5241 11.9973L22.5099 11.9891C22.3699 12.4987 22.4279 13.0367 22.6556 13.4985Z" />
  <path d="M23.077 14.0888L19.8071 19.7525L19.9892 19.8576L20.578 20.1976L20.7256 20.2828L23.9955 14.6191L23.9539 14.5951C23.7985 14.5485 23.646 14.4834 23.4994 14.3988C23.3529 14.3142 23.2202 14.2147 23.1022 14.1033L23.077 14.0888Z" />
  <path fill-rule="evenodd" clip-rule="evenodd" d="M20.2867 19.9633L20.2888 19.9645C19.7932 19.6791 19.2306 19.6139 18.716 19.7386C19.2306 19.6131 19.7924 19.6779 20.2867 19.9633ZM18.716 19.7386C18.3362 19.8312 17.9822 20.0274 17.7001 20.3152L17.6993 20.3147C17.9808 20.027 18.3353 19.8308 18.716 19.7386ZM20.1664 23.7177C19.7065 23.9384 19.1723 23.9912 18.6651 23.8492L18.6569 23.8635C19.1665 24.0034 19.7045 23.9455 20.1664 23.7177Z" />
  <path fill-rule="evenodd" clip-rule="evenodd" d="M17.3761 20.7432L17.3773 20.7412C17.0919 21.2367 17.0267 21.7994 17.1514 22.3139C17.0259 21.7994 17.0907 21.2375 17.3761 20.7432ZM17.1514 22.3139C17.244 22.6937 17.4403 23.0478 17.728 23.3298L17.7275 23.3306C17.4398 23.0491 17.2436 22.6947 17.1514 22.3139ZM21.1305 20.8636C21.2615 21.1365 21.3333 21.4355 21.3404 21.7395C21.3453 21.9479 21.3198 22.1586 21.2621 22.3648L21.2732 22.3712L21.2763 22.373C21.4162 21.8634 21.3583 21.3254 21.1305 20.8636Z" />
  <path fill-rule="evenodd" clip-rule="evenodd" d="M8.54402 19.6997H8.5464C8.18308 19.7001 7.84078 19.791 7.54115 19.9509C7.3741 20.04 7.22031 20.1506 7.08354 20.2789C7.46522 19.9198 7.97926 19.6997 8.54402 19.6997ZM7.07139 20.2904C6.78875 20.5605 6.58029 20.9075 6.4799 21.2977L6.47898 21.2977C6.57886 20.9078 6.78774 20.5606 7.07139 20.2904ZM10.317 23.0113C10.2149 23.1606 10.0941 23.2963 9.95805 23.4151C9.71038 23.6313 9.41192 23.7915 9.08265 23.8758L9.08265 23.8922C9.59396 23.7586 10.0309 23.4395 10.317 23.0113Z" />
  <path d="M10.6175 22.3512H17.1574V22.278V21.3596V21.2906H10.6175L10.6175 21.3387C10.6549 21.4966 10.6747 21.6612 10.6747 21.8304C10.6747 21.9996 10.6549 22.1642 10.6175 22.3221L10.6175 22.3512Z" />
  <path fill-rule="evenodd" clip-rule="evenodd" d="M17.1001 21.8304V21.828C17.1008 22.3999 17.3256 22.9197 17.6908 23.303C17.3249 22.9202 17.1001 22.4012 17.1001 21.8304ZM17.6908 23.303C17.961 23.5857 18.3079 23.7941 18.6982 23.8945V23.8954C18.3082 23.7956 17.9611 23.5867 17.6908 23.303ZM20.4117 20.0574C20.8328 20.3453 21.1456 20.7816 21.2763 21.2918H21.2927C21.1591 20.7805 20.8399 20.3435 20.4117 20.0574Z" />
  <path fill-rule="evenodd" clip-rule="evenodd" d="M19.2309 23.9611L19.2285 23.9611C19.8004 23.9605 20.3202 23.7356 20.7035 23.3704C20.3206 23.7363 19.8016 23.9611 19.2309 23.9611ZM20.7035 23.3704C20.9861 23.1003 21.1946 22.7533 21.295 22.3631H21.2959C21.196 22.753 20.9871 23.1001 20.7035 23.3704ZM17.4579 20.6495C17.5047 20.5811 17.5554 20.5155 17.6097 20.4531C17.8895 20.1316 18.265 19.8944 18.6922 19.785L18.6922 19.7686C18.1809 19.9022 17.744 20.2213 17.4579 20.6495Z" />
  <path fill-rule="evenodd" clip-rule="evenodd" d="M8.5851 0L8.58869 1.96091e-06C7.72466 0.00094334 6.93928 0.340682 6.36018 0.892451C6.93865 0.339627 7.72275 0 8.5851 0ZM6.36018 0.892451C5.93317 1.30053 5.61821 1.82479 5.46655 2.41437H5.46516C5.61606 1.8252 5.93164 1.30077 6.36018 0.892451ZM11.2638 5.00327C10.8288 5.63946 10.1697 6.11205 9.39887 6.30942V6.33422C10.1714 6.13239 10.8316 5.6502 11.2638 5.00327Z" />
  <path fill-rule="evenodd" clip-rule="evenodd" d="M11.3719 4.88092L11.3701 4.88402C11.6497 4.39862 11.7894 3.87064 11.8017 3.34748C11.8085 3.06367 11.7777 2.78127 11.7115 2.50786C11.901 3.28524 11.8031 4.1341 11.3719 4.88092ZM11.7115 2.50786C11.5716 1.93401 11.275 1.39912 10.8403 0.972988L10.841 0.971782C11.2758 1.39705 11.5721 1.93257 11.7115 2.50786ZM5.69962 4.69907C5.55823 4.40449 5.46246 4.08973 5.41539 3.76646C5.35143 3.32725 5.37735 2.87233 5.5009 2.43096L5.47943 2.41856C5.26796 3.18848 5.35546 4.0013 5.69962 4.69907Z" />
  <path fill-rule="evenodd" clip-rule="evenodd" d="M8.5851 18.4932L8.58869 18.4932C7.72466 18.4941 6.93928 18.8338 6.36018 19.3856C6.93865 18.8328 7.72275 18.4932 8.5851 18.4932ZM6.36018 19.3856C5.93317 19.7937 5.61821 20.3179 5.46655 20.9075H5.46516C5.61606 20.3183 5.93164 19.7939 6.36018 19.3856ZM11.2638 23.4964C10.8288 24.1326 10.1697 24.6052 9.39887 24.8026V24.8274C10.1714 24.6255 10.8316 24.1434 11.2638 23.4964Z" />
  <path fill-rule="evenodd" clip-rule="evenodd" d="M11.3719 23.3741L11.3701 23.3772C11.6497 22.8918 11.7894 22.3638 11.8017 21.8406C11.8085 21.5568 11.7777 21.2744 11.7115 21.001C11.901 21.7784 11.8031 22.6273 11.3719 23.3741ZM11.7115 21.001C11.5716 20.4272 11.275 19.8923 10.8403 19.4661L10.841 19.4649C11.2758 19.8902 11.5721 20.4257 11.7115 21.001ZM5.69962 23.1922C5.55824 22.8976 5.46247 22.5829 5.41539 22.2596C5.35143 21.8204 5.37735 21.3655 5.5009 20.9241L5.47943 20.9117C5.26796 21.6816 5.35546 22.4944 5.69962 23.1922Z" />
  <path fill-rule="evenodd" clip-rule="evenodd" d="M19.2015 0L19.2051 1.96091e-06C18.3411 0.00094334 17.5557 0.340682 16.9766 0.892451C17.5551 0.339627 18.3392 0 19.2015 0ZM16.9766 0.892451C16.5496 1.30053 16.2346 1.82479 16.083 2.41437H16.0816C16.2325 1.8252 16.5481 1.30077 16.9766 0.892451ZM21.8802 5.00327C21.4452 5.63946 20.7861 6.11205 20.0153 6.30942V6.33422C20.7878 6.13239 21.448 5.6502 21.8802 5.00327Z" />
  <path fill-rule="evenodd" clip-rule="evenodd" d="M21.9883 4.88092L21.9865 4.88402C22.2661 4.39863 22.4058 3.87068 22.4182 3.34753C22.4249 3.0637 22.3941 2.78129 22.3279 2.50786C22.5174 3.28524 22.4195 4.1341 21.9883 4.88092ZM22.3279 2.50786C22.188 1.93401 21.8915 1.39912 21.4567 0.972988L21.4574 0.971782C21.8922 1.39705 22.1886 1.93257 22.3279 2.50786ZM16.3161 4.69907C16.1747 4.40448 16.0789 4.08971 16.0318 3.76642C15.9679 3.32723 15.9938 2.87232 16.1173 2.43096L16.0959 2.41856C15.8844 3.18848 15.9719 4.0013 16.3161 4.69907Z" />
  <path fill-rule="evenodd" clip-rule="evenodd" d="M19.2015 18.4932L19.2051 18.4932C18.3411 18.4941 17.5557 18.8338 16.9766 19.3856C17.5551 18.8328 18.3392 18.4932 19.2015 18.4932ZM16.9766 19.3856C16.5496 19.7937 16.2346 20.3179 16.083 20.9075H16.0816C16.2325 20.3183 16.5481 19.7939 16.9766 19.3856ZM21.8802 23.4964C21.4452 24.1326 20.7861 24.6052 20.0153 24.8026V24.8274C20.7878 24.6255 21.448 24.1434 21.8802 23.4964Z" />
  <path fill-rule="evenodd" clip-rule="evenodd" d="M21.9883 23.3741L21.9865 23.3772C22.2661 22.8918 22.4058 22.3638 22.4182 21.8407C22.4249 21.5569 22.3941 21.2744 22.3279 21.001C22.5174 21.7784 22.4195 22.6273 21.9883 23.3741ZM22.3279 21.001C22.188 20.4272 21.8915 19.8923 21.4567 19.4661L21.4574 19.4649C21.8922 19.8902 22.1886 20.4257 22.3279 21.001ZM16.3161 23.1922C16.1747 22.8976 16.0789 22.5829 16.0318 22.2596C15.9679 21.8204 15.9938 21.3655 16.1173 20.9241L16.0959 20.9117C15.8844 21.6816 15.9719 22.4944 16.3161 23.1922Z" />
  <path fill-rule="evenodd" clip-rule="evenodd" d="M3.2198 9.24658L3.22339 9.24658C2.35936 9.24752 1.57399 9.58726 0.994888 10.139C1.57335 9.5862 2.35746 9.24658 3.2198 9.24658ZM0.994888 10.139C0.567875 10.5471 0.252914 11.0714 0.101249 11.6609H0.0998587C0.250763 11.0718 0.566345 10.5473 0.994888 10.139ZM5.89846 14.2498C5.46348 14.886 4.8044 15.3586 4.03358 15.556V15.5808C4.80609 15.379 5.46626 14.8968 5.89846 14.2498Z" />
  <path fill-rule="evenodd" clip-rule="evenodd" d="M6.00661 14.1275L6.00481 14.1306C6.28436 13.6452 6.42406 13.1172 6.43644 12.594C6.44316 12.3102 6.4124 12.0278 6.34618 11.7544C6.53571 12.5318 6.43778 13.3807 6.00661 14.1275ZM6.34618 11.7544C6.20627 11.1806 5.90974 10.6457 5.47498 10.2196L5.47568 10.2184C5.91046 10.6436 6.20684 11.1791 6.34618 11.7544ZM0.334319 13.9456C0.192937 13.6511 0.0971664 13.3363 0.0500907 13.013C-0.0138676 12.5738 0.012058 12.1189 0.135604 11.6775L0.11413 11.6651C-0.0973412 12.4351 -0.00983871 13.2479 0.334319 13.9456Z" />
  <path fill-rule="evenodd" clip-rule="evenodd" d="M24.5668 9.24658L24.5704 9.24658C23.7064 9.24752 22.921 9.58726 22.3419 10.139C22.9204 9.5862 23.7045 9.24658 24.5668 9.24658ZM22.3419 10.139C21.9149 10.5471 21.5999 11.0714 21.4483 11.6609H21.4469C21.5978 11.0718 21.9134 10.5473 22.3419 10.139ZM27.2455 14.2498C26.8105 14.886 26.1514 15.3586 25.3806 15.556V15.5808C26.1531 15.379 26.8133 14.8968 27.2455 14.2498Z" />
  <path fill-rule="evenodd" clip-rule="evenodd" d="M27.3536 14.1275L27.3518 14.1306C27.6314 13.6452 27.7711 13.1173 27.7835 12.5941C27.7902 12.3103 27.7594 12.0279 27.6932 11.7544C27.8827 12.5318 27.7848 13.3807 27.3536 14.1275ZM27.6932 11.7544C27.5533 11.1806 27.2568 10.6457 26.822 10.2196L26.8227 10.2184C27.2575 10.6436 27.5539 11.1791 27.6932 11.7544ZM21.6814 13.9456C21.54 13.6511 21.4442 13.3363 21.3971 13.013C21.3332 12.5738 21.3591 12.1189 21.4826 11.6775L21.4612 11.6651C21.2497 12.4351 21.3372 13.2479 21.6814 13.9456Z" />
  <path fill-rule="evenodd" clip-rule="evenodd" d="M5.36595 3.20478C5.36595 3.39636 5.3829 3.58405 5.41539 3.76646C5.46246 4.08973 5.55823 4.40449 5.69962 4.69907C5.86606 5.03654 6.09255 5.3471 6.37428 5.61287C6.55261 5.78111 6.75307 5.93139 6.97446 6.05921C7.19584 6.18703 7.42623 6.28549 7.66109 6.35581C9.05639 6.7736 10.6095 6.19812 11.3701 4.88402C11.6497 4.39862 11.7894 3.87064 11.8017 3.34748C11.8034 3.30491 11.8043 3.26213 11.8043 3.21915C11.8043 2.96352 11.7743 2.71477 11.7178 2.47622C11.382 1.05895 10.107 0.00166366 8.58869 1.96091e-06C7.72466 0.00094334 6.93928 0.340682 6.36018 0.892451C5.93317 1.30053 5.61821 1.82479 5.46655 2.41437H5.46516C5.40038 2.66726 5.36595 2.93209 5.36595 3.20478ZM7.974 5.35806V5.33834C7.85537 5.30803 7.74073 5.26782 7.63102 5.21865L7.25385 5.00089C6.81572 4.68436 6.50328 4.20623 6.40513 3.65519C6.36279 3.36449 6.37995 3.06339 6.46173 2.77125L6.44751 2.76304C6.49462 2.59153 6.56415 2.42323 6.65715 2.26213C6.74821 2.10441 6.85632 1.96234 6.97851 1.83671L6.99559 1.84657C7.65984 1.16669 8.72064 0.993155 9.57599 1.487C9.7323 1.57724 9.87271 1.68462 9.99623 1.80545L9.99578 1.80624C10.2835 2.08829 10.4798 2.44233 10.5724 2.82215C10.5732 2.82532 10.5739 2.82848 10.5747 2.83166C10.5753 2.83436 10.576 2.83706 10.5766 2.83977V3.78469C10.5175 4.03413 10.4144 4.26673 10.2761 4.47382C9.98816 4.89491 9.55193 5.2077 9.04173 5.33834V5.35475C8.86964 5.39971 8.68913 5.42365 8.50311 5.42365C8.32099 5.42365 8.1439 5.40106 7.974 5.35806Z" />
  <path fill-rule="evenodd" clip-rule="evenodd" d="M15.9824 3.20478C15.9824 3.39635 15.9993 3.58403 16.0318 3.76642C16.0789 4.08971 16.1747 4.40448 16.3161 4.69907C16.4825 5.03654 16.709 5.3471 16.9907 5.61287C17.169 5.78111 17.3695 5.93139 17.5909 6.05921C17.8123 6.18703 18.0427 6.28549 18.2775 6.35581C19.6728 6.7736 21.2259 6.19812 21.9865 4.88402C22.2661 4.39863 22.4058 3.87068 22.4182 3.34753C22.4198 3.30495 22.4207 3.26215 22.4207 3.21915C22.4207 2.96352 22.3908 2.71477 22.3342 2.47622C21.9984 1.05895 20.7235 0.00166366 19.2051 1.96091e-06C18.3411 0.00094334 17.5557 0.340682 16.9766 0.892451C16.5496 1.30053 16.2346 1.82479 16.083 2.41437H16.0816C16.0168 2.66726 15.9824 2.93209 15.9824 3.20478ZM20.7277 4.74917C20.6957 4.7824 20.6626 4.81461 20.6285 4.84572L19.8332 5.30489C19.754 5.32998 19.6728 5.35059 19.59 5.36643H18.8219C18.4035 5.28485 18.0104 5.07832 17.7021 4.76299L17.6878 4.77119L17.6828 4.76605C17.5609 4.6418 17.4525 4.5006 17.3612 4.3433C17.2694 4.18344 17.2009 4.01636 17.1547 3.84612L17.1682 3.8383C17.1464 3.76054 17.1292 3.68212 17.1165 3.60342V2.92356C17.1241 2.8759 17.1334 2.82853 17.1443 2.78155C17.2721 2.26623 17.5914 1.79784 18.0705 1.49235C18.2486 1.38394 18.4438 1.30068 18.6513 1.24755V1.23467C18.7426 1.20962 18.8348 1.1909 18.9273 1.17833C19.0118 1.1679 19.0979 1.16243 19.1852 1.16224C19.3696 1.16265 19.5485 1.18684 19.719 1.23192V1.24755C20.0715 1.33762 20.3888 1.51507 20.6462 1.75521C20.7228 1.82905 20.794 1.9086 20.859 1.99318L21.1402 2.4802C21.2442 2.7321 21.3016 3.00825 21.3016 3.2977C21.3016 3.4781 21.2797 3.65359 21.2378 3.82206H21.2353C21.1453 4.17451 20.9678 4.49178 20.7277 4.74917Z" />
  <path fill-rule="evenodd" clip-rule="evenodd" d="M21.3477 12.4514C21.3477 12.6429 21.3646 12.8306 21.3971 13.013C21.4442 13.3363 21.54 13.6511 21.6814 13.9456C21.8478 14.2831 22.0743 14.5937 22.356 14.8594C22.5343 15.0277 22.7348 15.178 22.9562 15.3058C23.1776 15.4336 23.408 15.5321 23.6428 15.6024C25.0381 16.0202 26.5912 15.4447 27.3518 14.1306C27.6314 13.6452 27.7711 13.1173 27.7835 12.5941C27.7851 12.5515 27.786 12.5087 27.786 12.4657C27.786 12.2101 27.7561 11.9613 27.6995 11.7228C27.3637 10.3055 26.0888 9.24824 24.5704 9.24658C23.7064 9.24752 22.921 9.58726 22.3419 10.139C21.9149 10.5471 21.5999 11.0714 21.4483 11.6609H21.4469C21.3821 11.9138 21.3477 12.1787 21.3477 12.4514ZM26.5834 11.9644C26.8401 12.8796 26.46 13.8851 25.6046 14.3789C25.4483 14.4691 25.2851 14.537 25.1187 14.5836L25.1183 14.5828C24.7301 14.691 24.3254 14.684 23.9502 14.5742C23.9265 14.5673 23.903 14.5599 23.8796 14.5522L23.1304 14.1196C23.0099 14.0123 22.9001 13.8898 22.804 13.7532C22.7485 13.6715 22.699 13.5864 22.6556 13.4985C22.4349 13.0386 22.3822 12.5044 22.5241 11.9973L22.5099 11.9891C22.557 11.8175 22.6265 11.6492 22.7195 11.4882C22.8106 11.3304 22.9187 11.1884 23.0409 11.0627L23.058 11.0726C23.1428 10.9857 23.2341 10.9072 23.3307 10.8372L23.7131 10.6164C24.3138 10.3481 25.0283 10.3608 25.6384 10.713C25.6482 10.7187 25.6579 10.7244 25.6675 10.7301C25.8048 10.8173 25.9332 10.9208 26.0496 11.0397L26.0598 11.0338C26.1337 11.1064 26.2015 11.1837 26.2631 11.265C26.3094 11.328 26.3528 11.3942 26.3928 11.4635C26.4838 11.6213 26.5528 11.7859 26.6005 11.9546L26.5834 11.9644Z" />
  <path fill-rule="evenodd" clip-rule="evenodd" d="M6.00481 14.1306C6.28436 13.6452 6.42406 13.1172 6.43644 12.594C6.43812 12.5515 6.43896 12.5087 6.43896 12.4657C6.43896 12.2101 6.40904 11.9613 6.35251 11.7228C6.01667 10.3055 4.74174 9.24824 3.22339 9.24658C2.35936 9.24752 1.57399 9.58726 0.994888 10.139C0.567875 10.5471 0.252914 11.0714 0.101249 11.6609H0.0998587C0.0350842 11.9138 0.000650736 12.1787 0.000650736 12.4514C0.000650736 12.6429 0.0176 12.8306 0.0500907 13.013C0.0971664 13.3363 0.192937 13.6511 0.334319 13.9456C0.500768 14.2831 0.727251 14.5937 1.00898 14.8594C1.18731 15.0277 1.38777 15.178 1.60916 15.3058C1.83054 15.4336 2.06093 15.5321 2.29579 15.6024C3.6911 16.0202 5.2442 15.4447 6.00481 14.1306ZM3.80811 10.5631C3.76411 10.5491 3.71967 10.5365 3.67489 10.5254C3.33192 10.4462 2.96843 10.4511 2.61815 10.5493L2.61691 10.5472C2.4501 10.5952 2.28714 10.6639 2.1309 10.7541C1.88023 10.8988 1.66981 11.0867 1.50366 11.3027L1.22247 11.7897C1.18172 11.8883 1.14841 11.9897 1.12278 12.093C1.04352 12.436 1.04847 12.7995 1.14671 13.1497L1.13318 13.1576C1.17942 13.3278 1.24794 13.4949 1.33976 13.6547C1.38357 13.7302 1.43132 13.802 1.48263 13.87C1.53975 13.9438 1.60206 14.0143 1.66942 14.0809L1.68057 14.0744C1.83032 14.2275 2.00004 14.355 2.18292 14.455C2.68708 14.7172 3.25237 14.7595 3.76258 14.6126C3.8087 14.5985 3.85436 14.5828 3.89947 14.5656L4.48825 14.2257C4.55005 14.1754 4.60935 14.1212 4.6658 14.0635L4.67933 14.0713C4.80365 13.9461 4.91408 13.8032 5.00661 13.6438C5.09719 13.4861 5.16529 13.3216 5.21195 13.1539L5.21388 13.147L5.19966 13.1388C5.31855 12.714 5.30086 12.2704 5.16232 11.8672L4.7783 11.2021C4.72315 11.1382 4.66472 11.0783 4.60341 11.0222L3.80811 10.5631Z" />
  <path fill-rule="evenodd" clip-rule="evenodd" d="M5.36595 21.6979C5.36595 21.8895 5.3829 22.0772 5.41539 22.2596C5.46247 22.5829 5.55824 22.8976 5.69962 23.1922C5.86606 23.5297 6.09255 23.8402 6.37428 24.106C6.55261 24.2743 6.75307 24.4245 6.97446 24.5524C7.19584 24.6802 7.42623 24.7786 7.66109 24.849C9.05639 25.2667 10.6095 24.6913 11.3701 23.3772C11.6497 22.8918 11.7894 22.3638 11.8017 21.8406C11.8034 21.7981 11.8043 21.7553 11.8043 21.7123C11.8043 21.4567 11.7743 21.2079 11.7178 20.9694C11.382 19.5521 10.107 18.4948 8.58869 18.4932C7.72466 18.4941 6.93928 18.8338 6.36018 19.3856C5.93317 19.7937 5.61821 20.3179 5.46655 20.9075H5.46516C5.40038 21.1604 5.36595 21.4252 5.36595 21.6979ZM10.579 21.266L10.562 21.2759C10.586 21.3617 10.6045 21.4483 10.6175 21.5353L10.6175 22.166C10.5471 22.6379 10.3198 23.0822 9.95805 23.4151C9.71038 23.6313 9.41192 23.7915 9.08265 23.8758L9.08265 23.8922C8.91056 23.9372 8.73004 23.9611 8.54402 23.9611C8.36191 23.9611 8.18481 23.9385 8.01491 23.8955L8.01492 23.8758C7.094 23.6405 6.41332 22.8086 6.41332 21.8209C6.41332 21.6404 6.43611 21.4651 6.47898 21.2977L6.4799 21.2977C6.58029 20.9075 6.78875 20.5605 7.07139 20.2904C7.07542 20.2865 7.07948 20.2827 7.08354 20.2789L7.91516 19.7988C8.16074 19.7252 8.41371 19.6982 8.66223 19.7145C9.17086 19.7533 9.65986 19.9746 10.0281 20.3512L10.0423 20.343C10.1673 20.4695 10.2783 20.6139 10.3713 20.775C10.4623 20.9327 10.5313 21.0974 10.579 21.266Z" />
  <path fill-rule="evenodd" clip-rule="evenodd" d="M21.9865 23.3772C22.2661 22.8918 22.4058 22.3638 22.4182 21.8407C22.4198 21.7981 22.4207 21.7553 22.4207 21.7123C22.4207 21.4567 22.3908 21.2079 22.3342 20.9694C21.9984 19.5521 20.7235 18.4948 19.2051 18.4932C18.3411 18.4941 17.5557 18.8338 16.9766 19.3856C16.5496 19.7937 16.2346 20.3179 16.083 20.9075H16.0816C16.0168 21.1604 15.9824 21.4252 15.9824 21.6979C15.9824 21.8895 15.9993 22.0772 16.0318 22.2596C16.0789 22.5829 16.1747 22.8976 16.3161 23.1922C16.4825 23.5297 16.709 23.8402 16.9907 24.106C17.169 24.2743 17.3695 24.4245 17.5909 24.5524C17.8123 24.6802 18.0427 24.7786 18.2775 24.849C19.6728 25.2667 21.2259 24.6913 21.9865 23.3772ZM17.1574 22.278C17.1673 22.3231 17.1786 22.3678 17.1914 22.4121C17.2942 22.7488 17.4802 23.0611 17.7405 23.3154L17.7392 23.3175C17.8642 23.438 18.0052 23.5448 18.1614 23.635C18.4121 23.7797 18.68 23.868 18.9501 23.9039H19.5125C19.6183 23.8899 19.7227 23.868 19.825 23.8386C20.1616 23.7357 20.474 23.5497 20.7282 23.2895L20.7417 23.2973C20.866 23.1722 20.9764 23.0294 21.0689 22.87C21.1124 22.7943 21.1507 22.7169 21.184 22.6384C21.2194 22.5521 21.2492 22.4629 21.2732 22.3712L21.2621 22.3648C21.3198 22.1586 21.3453 21.9479 21.3404 21.7395C21.3155 21.1718 21.0695 20.661 20.6871 20.2926C20.6518 20.2598 20.6155 20.228 20.578 20.1976L19.9892 19.8576C19.9147 19.8293 19.8382 19.805 19.76 19.785V19.7694C19.5894 19.7243 19.4105 19.7001 19.2261 19.6997C19.0443 19.7001 18.8677 19.7234 18.6992 19.7668L18.6922 19.7686L18.6922 19.785C18.265 19.8944 17.8895 20.1316 17.6097 20.4531L17.2257 21.1183C17.198 21.198 17.1752 21.2785 17.1574 21.3596V22.278Z" />
</svg>