<svg width="48" height="48" viewBox="0 0 48 48" fill="none" xmlns="http://www.w3.org/2000/svg">
<g filter="url(#filter0_d_439_675)">
<circle cx="24" cy="20" r="19.5" fill="#ED5338" stroke="white"/>
<g clip-path="url(#clip0_439_675)">
<path d="M17.972 15.5491C19.0262 13.7053 20.3694 12.0089 21.5837 10.8214C22.4155 11.6562 23.4029 12.9286 24.2569 14.0223C24.426 14.2366 24.5861 14.4464 24.7418 14.6428C24.9464 14.9018 25.2622 15.0536 25.5913 15.0491C25.9205 15.0446 26.2318 14.8884 26.432 14.625C26.5788 14.433 26.7745 14.1428 26.9791 13.8482C27.0947 13.6786 27.2148 13.5089 27.326 13.3482C27.5751 12.9955 27.793 12.7009 27.9665 12.4955C28.8561 13.4241 29.7902 14.8616 30.5196 16.442C31.3069 18.1473 31.7917 19.8795 31.7917 21.1875C31.7917 25.7857 28.2868 29.2857 23.9634 29.2857C19.5911 29.2857 16.135 25.7857 16.135 21.1875C16.135 19.5134 16.8556 17.5089 17.972 15.5536V15.5491ZM22.8736 9.08927C22.1531 8.40177 21.0277 8.39731 20.3072 9.08481C18.8838 10.4286 17.3271 12.3705 16.1217 14.4866C14.9207 16.5848 14 18.9732 14 21.1875C14 26.9152 18.3634 31.4286 23.9634 31.4286C29.5055 31.4286 33.9267 26.9241 33.9267 21.1875C33.9267 19.442 33.3085 17.3839 32.4545 15.5402C31.6005 13.6875 30.4485 11.9152 29.2564 10.7589C28.5314 10.0536 27.3883 10.0536 26.6633 10.7545C26.3119 11.0937 25.9071 11.6473 25.5824 12.1071L25.5335 12.1786C24.7017 11.1161 23.7143 9.88838 22.8736 9.08927ZM24.039 27.1428C25.1643 27.1428 26.1606 26.8303 27.0992 26.2053C28.9717 24.8928 29.4744 22.2678 28.349 20.2053C28.1489 19.8036 27.6374 19.7768 27.3482 20.1161L26.2274 21.4241C25.9338 21.7634 25.4045 21.7545 25.1287 21.4018C24.3948 20.4643 23.0827 18.7902 22.3354 17.8393C22.0552 17.4821 21.5215 17.4777 21.2368 17.8348C19.7334 19.7321 18.9772 20.9286 18.9772 22.2723C18.9817 25.3303 21.2323 27.1428 24.039 27.1428Z" fill="white"/>
</g>
</g>
<defs>
<filter id="filter0_d_439_675" x="0" y="0" width="48" height="48" filterUnits="userSpaceOnUse" color-interpolation-filters="sRGB">
<feFlood flood-opacity="0" result="BackgroundImageFix"/>
<feColorMatrix in="SourceAlpha" type="matrix" values="0 0 0 0 0 0 0 0 0 0 0 0 0 0 0 0 0 0 127 0" result="hardAlpha"/>
<feOffset dy="4"/>
<feGaussianBlur stdDeviation="2"/>
<feComposite in2="hardAlpha" operator="out"/>
<feColorMatrix type="matrix" values="0 0 0 0 0 0 0 0 0 0 0 0 0 0 0 0 0 0 0.25 0"/>
<feBlend mode="normal" in2="BackgroundImageFix" result="effect1_dropShadow_439_675"/>
<feBlend mode="normal" in="SourceGraphic" in2="effect1_dropShadow_439_675" result="shape"/>
</filter>
<clipPath id="clip0_439_675">
<rect width="19.9267" height="22.8571" fill="white" transform="translate(14 8.57141)"/>
</clipPath>
</defs>
</svg>
