<svg width="48" height="48" viewBox="0 0 48 48" fill="none" xmlns="http://www.w3.org/2000/svg">
<g filter="url(#filter0_d_798_124)">
<circle cx="24" cy="20" r="19.5" fill="#563E99" stroke="white"/>
<g clip-path="url(#clip0_798_124)">
<path d="M22.709 8.24492C23.0957 7.91836 23.6586 7.91836 24.0454 8.24492L30.2457 13.5086C29.7086 13.4613 29.15 13.6289 28.7247 14.0113C28.5485 14.166 28.3809 14.325 28.209 14.484L23.375 10.3848L15.8125 16.8V26.5625C15.8125 27.323 16.427 27.9375 17.1875 27.9375H19.25V21.4062C19.25 20.4566 20.0192 19.6875 20.9688 19.6875H24.2774C23.9465 20.3621 23.6844 21.0625 23.5297 21.75H21.3125V27.9375H24.9563C25.5364 28.7453 26.2582 29.4457 27.0875 30H17.1875C15.2883 30 13.75 28.4617 13.75 26.5625V18.5488L12.6973 19.4426C12.2633 19.8121 11.6102 19.7563 11.245 19.3223C10.8797 18.8883 10.9313 18.2352 11.3653 17.8699L22.709 8.24492ZM30.4864 15.0383C31.3329 15.8031 32.1278 16.6281 32.8711 17.5176C33.2106 17.0922 33.593 16.6281 34.0098 16.25C34.2504 16.0309 34.6286 16.0309 34.8692 16.25C35.9305 17.2254 36.8286 18.5145 37.4645 19.7348C38.0875 20.9379 38.5043 22.2613 38.5043 23.1293C38.5 26.9062 35.4364 30 31.625 30C27.7707 30 24.75 26.902 24.75 23.1336C24.75 21.9992 25.2957 20.5254 26.1422 19.1547C27.0016 17.7625 28.209 16.3145 29.6399 15.0383C29.7602 14.9309 29.9149 14.875 30.0696 14.8793C30.22 14.8793 30.3704 14.9352 30.4907 15.0426L30.4864 15.0383ZM33.7735 26.6055C35.0625 25.7031 35.4063 23.8984 34.6329 22.4805C34.5469 22.3086 34.461 22.1367 34.3321 21.9648L32.7852 23.7695C32.7852 23.7695 30.293 20.5898 30.1211 20.375C28.8321 21.9648 28.1875 22.8672 28.1875 23.8984C28.1875 26.0039 29.7344 27.25 31.668 27.25C32.4414 27.25 33.1289 27.0352 33.7735 26.6055Z" fill="white"/>
</g>
</g>
<defs>
<filter id="filter0_d_798_124" x="0" y="0" width="48" height="48" filterUnits="userSpaceOnUse" color-interpolation-filters="sRGB">
<feFlood flood-opacity="0" result="BackgroundImageFix"/>
<feColorMatrix in="SourceAlpha" type="matrix" values="0 0 0 0 0 0 0 0 0 0 0 0 0 0 0 0 0 0 127 0" result="hardAlpha"/>
<feOffset dy="4"/>
<feGaussianBlur stdDeviation="2"/>
<feComposite in2="hardAlpha" operator="out"/>
<feColorMatrix type="matrix" values="0 0 0 0 0 0 0 0 0 0 0 0 0 0 0 0 0 0 0.25 0"/>
<feBlend mode="normal" in2="BackgroundImageFix" result="effect1_dropShadow_798_124"/>
<feBlend mode="normal" in="SourceGraphic" in2="effect1_dropShadow_798_124" result="shape"/>
</filter>
<clipPath id="clip0_798_124">
<rect width="27.5" height="22" fill="white" transform="translate(11 8)"/>
</clipPath>
</defs>
</svg>
