<svg width="167" height="163" viewBox="0 0 167 163" fill="none" xmlns="http://www.w3.org/2000/svg">
<rect width="167" height="163" fill="white"/>
<path d="M62.0316 50.3989C61.2192 49.7583 60.0395 49.9067 59.3989 50.7192C58.7583 51.5317 58.9067 52.7113 59.7192 53.3519L105.968 89.6011C106.781 90.2417 107.961 90.0933 108.601 89.2808C109.242 88.4683 109.093 87.2887 108.281 86.6481L103.945 83.2497C103.984 83.0075 104 82.7575 104 82.4997V57.5003C104 54.7425 101.758 52.5004 98.9997 52.5004H69.0003C67.8753 52.5004 66.8284 52.8754 65.9925 53.5082L62.0316 50.3989ZM69.5003 56.2503H98.9997C99.6872 56.2503 100.25 56.8128 100.25 57.5003V80.3513L96.0779 77.078L89.2343 68.2266C88.8827 67.7657 88.328 67.5001 87.7499 67.5001C87.1718 67.5001 86.625 67.7657 86.2656 68.2266L85.7031 68.9531L79.0001 63.6955C78.9688 61.6486 77.3048 60.0002 75.2502 60.0002C74.9611 60.0002 74.672 60.0315 74.4064 60.094L69.5003 56.2503ZM97.0779 87.4996L81.1016 74.914L79.7813 76.617L77.3986 73.2812C77.047 72.789 76.4845 72.4999 75.8751 72.4999C75.2658 72.4999 74.7033 72.789 74.3517 73.289L68.1018 82.0388L67.7503 82.531V82.5075V64.3907L64.0004 61.4377V82.4997C64.0004 85.2575 66.2425 87.4996 69.0003 87.4996H97.0779Z" fill="#253746"/>
<path d="M66.7514 107.22V102H67.6814V109H66.9314L63.3314 103.77V109H62.4014V102H63.1514L66.7514 107.22ZM73.3087 108.37C72.802 108.877 72.1787 109.13 71.4387 109.13C70.6987 109.13 70.0754 108.877 69.5687 108.37C69.062 107.863 68.8087 107.24 68.8087 106.5C68.8087 105.76 69.062 105.137 69.5687 104.63C70.0754 104.123 70.6987 103.87 71.4387 103.87C72.1787 103.87 72.802 104.123 73.3087 104.63C73.822 105.143 74.0787 105.767 74.0787 106.5C74.0787 107.233 73.822 107.857 73.3087 108.37ZM71.4387 108.28C71.9387 108.28 72.3587 108.11 72.6987 107.77C73.0387 107.43 73.2087 107.007 73.2087 106.5C73.2087 105.993 73.0387 105.57 72.6987 105.23C72.3587 104.89 71.9387 104.72 71.4387 104.72C70.9454 104.72 70.5287 104.89 70.1887 105.23C69.8487 105.57 69.6787 105.993 69.6787 106.5C69.6787 107.007 69.8487 107.43 70.1887 107.77C70.5287 108.11 70.9454 108.28 71.4387 108.28ZM77.6943 109V102H78.6243V109H77.6943ZM85.436 103.87C86.0026 103.87 86.456 104.053 86.796 104.42C87.1426 104.787 87.316 105.277 87.316 105.89V109H86.446V105.92C86.446 105.54 86.346 105.243 86.146 105.03C85.9526 104.81 85.686 104.7 85.346 104.7C84.9593 104.7 84.656 104.83 84.436 105.09C84.2226 105.343 84.116 105.72 84.116 106.22V109H83.246V105.92C83.246 105.54 83.1493 105.243 82.956 105.03C82.7693 104.81 82.5126 104.7 82.186 104.7C81.806 104.7 81.496 104.833 81.256 105.1C81.0226 105.36 80.906 105.733 80.906 106.22V109H80.036V104H80.906V104.67C81.246 104.137 81.7426 103.87 82.396 103.87C83.0693 103.87 83.5593 104.153 83.866 104.72C84.2126 104.153 84.736 103.87 85.436 103.87ZM92.6623 104.86V104H93.5323V109H92.6623V108.14C92.2356 108.8 91.6056 109.13 90.7723 109.13C90.0656 109.13 89.469 108.877 88.9823 108.37C88.489 107.857 88.2423 107.233 88.2423 106.5C88.2423 105.773 88.489 105.153 88.9823 104.64C89.4756 104.127 90.0723 103.87 90.7723 103.87C91.6056 103.87 92.2356 104.2 92.6623 104.86ZM90.8823 108.29C91.389 108.29 91.8123 108.12 92.1523 107.78C92.4923 107.427 92.6623 107 92.6623 106.5C92.6623 105.993 92.4923 105.57 92.1523 105.23C91.8123 104.883 91.389 104.71 90.8823 104.71C90.3823 104.71 89.9623 104.883 89.6223 105.23C89.2823 105.57 89.1123 105.993 89.1123 106.5C89.1123 107 89.2823 107.427 89.6223 107.78C89.9623 108.12 90.3823 108.29 90.8823 108.29ZM99.0004 104.86V104H99.8604V108.79C99.8604 109.53 99.6104 110.103 99.1104 110.51C98.6038 110.923 98.0038 111.13 97.3104 111.13C96.7504 111.13 96.2671 111.023 95.8604 110.81C95.4538 110.603 95.1471 110.303 94.9404 109.91L95.7004 109.48C95.9738 110.04 96.5171 110.32 97.3304 110.32C97.8504 110.32 98.2571 110.183 98.5504 109.91C98.8504 109.637 99.0004 109.263 99.0004 108.79V108.08C98.5604 108.747 97.9338 109.08 97.1204 109.08C96.4004 109.08 95.7971 108.827 95.3104 108.32C94.8171 107.807 94.5704 107.19 94.5704 106.47C94.5704 105.75 94.8171 105.137 95.3104 104.63C95.7971 104.123 96.4004 103.87 97.1204 103.87C97.9404 103.87 98.5671 104.2 99.0004 104.86ZM99.0004 106.47C99.0004 105.97 98.8304 105.55 98.4904 105.21C98.1504 104.87 97.7271 104.7 97.2204 104.7C96.7138 104.7 96.2904 104.87 95.9504 105.21C95.6104 105.55 95.4404 105.97 95.4404 106.47C95.4404 106.977 95.6104 107.4 95.9504 107.74C96.2904 108.08 96.7138 108.25 97.2204 108.25C97.7271 108.25 98.1504 108.08 98.4904 107.74C98.8304 107.4 99.0004 106.977 99.0004 106.47ZM105.979 106.9H101.789C101.875 107.34 102.079 107.687 102.399 107.94C102.719 108.187 103.119 108.31 103.599 108.31C104.259 108.31 104.739 108.067 105.039 107.58L105.779 108C105.285 108.753 104.552 109.13 103.579 109.13C102.792 109.13 102.145 108.883 101.639 108.39C101.145 107.883 100.899 107.253 100.899 106.5C100.899 105.74 101.142 105.113 101.629 104.62C102.115 104.12 102.745 103.87 103.519 103.87C104.252 103.87 104.849 104.13 105.309 104.65C105.775 105.157 106.009 105.777 106.009 106.51C106.009 106.637 105.999 106.767 105.979 106.9ZM103.519 104.69C103.059 104.69 102.672 104.82 102.359 105.08C102.052 105.34 101.862 105.693 101.789 106.14H105.129C105.055 105.68 104.872 105.323 104.579 105.07C104.285 104.817 103.932 104.69 103.519 104.69Z" fill="black"/>
</svg>
