<svg width="28" height="19" viewBox="0 0 28 19" fill="#253746" xmlns="http://www.w3.org/2000/svg">
  <path d="M1.54167 18.5C0.690228 18.5 0 17.8098 0 16.9583C0 16.1069 0.690228 15.4167 1.54167 15.4167H26.2083C27.0598 15.4167 27.75 16.1069 27.75 16.9583C27.75 17.8098 27.0598 18.5 26.2083 18.5H1.54167ZM1.54167 10.7917C0.690228 10.7917 0 10.1014 0 9.25C0 8.39856 0.690228 7.70833 1.54167 7.70833H26.2083C27.0598 7.70833 27.75 8.39856 27.75 9.25C27.75 10.1014 27.0598 10.7917 26.2083 10.7917H1.54167ZM1.54167 3.08333C0.690228 3.08333 0 2.39311 0 1.54167C0 0.690228 0.690228 0 1.54167 0H26.2083C27.0598 0 27.75 0.690228 27.75 1.54167C27.75 2.39311 27.0598 3.08333 26.2083 3.08333H1.54167Z" fill="#253746" />
</svg>