<svg width="145" height="17" viewBox="0 0 145 17" fill="none" xmlns="http://www.w3.org/2000/svg">
<path d="M8.73169 0C7.7657 0 6.90793 0.55 6.6033 1.36786L6.25859 2.28571H3.31652C1.9016 2.28571 0.751221 3.31071 0.751221 4.57143V13.7143C0.751221 14.975 1.9016 16 3.31652 16H18.7083C20.1232 16 21.2736 14.975 21.2736 13.7143V4.57143C21.2736 3.31071 20.1232 2.28571 18.7083 2.28571H15.7662L15.4215 1.36786C15.1169 0.55 14.2591 0 13.2931 0H8.73169ZM8.42706 1.91071C8.47115 1.79286 8.5914 1.71429 8.73169 1.71429H13.2931C13.4294 1.71429 13.5536 1.79286 13.5977 1.91071L14.1589 3.41429C14.2912 3.76429 14.6559 4 15.0728 4H18.7083C19.061 4 19.3496 4.25714 19.3496 4.57143V13.7143C19.3496 14.0286 19.061 14.2857 18.7083 14.2857H3.31652C2.96379 14.2857 2.67519 14.0286 2.67519 13.7143V4.57143C2.67519 4.25714 2.96379 4 3.31652 4H6.95202C7.36487 4 7.73363 3.76429 7.86591 3.41429L8.42706 1.91071ZM11.0124 13.1429C11.6019 13.1429 12.1857 13.0394 12.7304 12.8384C13.275 12.6374 13.7699 12.3427 14.1868 11.9713C14.6037 11.5999 14.9343 11.1589 15.1599 10.6736C15.3855 10.1883 15.5017 9.66815 15.5017 9.14286C15.5017 8.61757 15.3855 8.09743 15.1599 7.61212C14.9343 7.12682 14.6037 6.68586 14.1868 6.31443C13.7699 5.943 13.275 5.64836 12.7304 5.44734C12.1857 5.24632 11.6019 5.14286 11.0124 5.14286C10.4229 5.14286 9.83909 5.24632 9.29443 5.44734C8.74977 5.64836 8.25488 5.943 7.83801 6.31443C7.42114 6.68586 7.09047 7.12682 6.86486 7.61212C6.63925 8.09743 6.52313 8.61757 6.52313 9.14286C6.52313 9.66815 6.63925 10.1883 6.86486 10.6736C7.09047 11.1589 7.42114 11.5999 7.83801 11.9713C8.25488 12.3427 8.74977 12.6374 9.29443 12.8384C9.83909 13.0394 10.4229 13.1429 11.0124 13.1429ZM8.4471 9.14286C8.4471 8.53665 8.71738 7.95527 9.19846 7.52661C9.67955 7.09796 10.332 6.85714 11.0124 6.85714C11.6928 6.85714 12.3453 7.09796 12.8263 7.52661C13.3074 7.95527 13.5777 8.53665 13.5777 9.14286C13.5777 9.74907 13.3074 10.3304 12.8263 10.7591C12.3453 11.1878 11.6928 11.4286 11.0124 11.4286C10.332 11.4286 9.67955 11.1878 9.19846 10.7591C8.71738 10.3304 8.4471 9.74907 8.4471 9.14286Z" fill="#253746"/>
<path d="M29.8513 13V1.8H32.0593V13H29.8513ZM42.8845 4.776C43.8019 4.776 44.5325 5.07467 45.0765 5.672C45.6312 6.26933 45.9085 7.06933 45.9085 8.072V13H43.8445V8.216C43.8445 7.736 43.7272 7.36267 43.4925 7.096C43.2579 6.82933 42.9272 6.696 42.5005 6.696C42.0312 6.696 41.6632 6.85067 41.3965 7.16C41.1405 7.46933 41.0125 7.91733 41.0125 8.504V13H38.9485V8.216C38.9485 7.736 38.8312 7.36267 38.5965 7.096C38.3619 6.82933 38.0312 6.696 37.6045 6.696C37.1459 6.696 36.7779 6.856 36.5005 7.176C36.2339 7.48533 36.1005 7.928 36.1005 8.504V13H34.0365V5H36.1005V5.848C36.5805 5.13333 37.3219 4.776 38.3245 4.776C39.3165 4.776 40.0419 5.16 40.5005 5.928C41.0232 5.16 41.8179 4.776 42.8845 4.776ZM53.7415 5.944V5H55.8055V13H53.7415V12.056C53.1229 12.8347 52.2535 13.224 51.1335 13.224C50.0669 13.224 49.1495 12.8187 48.3815 12.008C47.6242 11.1867 47.2455 10.184 47.2455 9C47.2455 7.82667 47.6242 6.82933 48.3815 6.008C49.1495 5.18667 50.0669 4.776 51.1335 4.776C52.2535 4.776 53.1229 5.16533 53.7415 5.944ZM49.9335 10.632C50.3495 11.048 50.8775 11.256 51.5175 11.256C52.1575 11.256 52.6855 11.048 53.1015 10.632C53.5282 10.2053 53.7415 9.66133 53.7415 9C53.7415 8.33867 53.5282 7.8 53.1015 7.384C52.6855 6.95733 52.1575 6.744 51.5175 6.744C50.8775 6.744 50.3495 6.95733 49.9335 7.384C49.5175 7.8 49.3095 8.33867 49.3095 9C49.3095 9.66133 49.5175 10.2053 49.9335 10.632ZM63.8052 5.992V5H65.8212V12.616C65.8212 13.8427 65.4105 14.7867 64.5892 15.448C63.7785 16.0987 62.7972 16.424 61.6452 16.424C59.8318 16.424 58.5678 15.7733 57.8532 14.472L59.6132 13.464C60.0078 14.2107 60.7065 14.584 61.7092 14.584C62.3598 14.584 62.8718 14.4133 63.2452 14.072C63.6185 13.7307 63.8052 13.2453 63.8052 12.616V11.752C63.1972 12.5627 62.3438 12.968 61.2452 12.968C60.1145 12.968 59.1652 12.5733 58.3972 11.784C57.6398 10.9733 57.2612 10.0027 57.2612 8.872C57.2612 7.74133 57.6452 6.776 58.4132 5.976C59.1812 5.176 60.1252 4.776 61.2452 4.776C62.3438 4.776 63.1972 5.18133 63.8052 5.992ZM63.1652 10.456C63.5918 10.04 63.8052 9.512 63.8052 8.872C63.8052 8.232 63.5918 7.71467 63.1652 7.32C62.7492 6.904 62.2158 6.696 61.5652 6.696C60.9252 6.696 60.3865 6.904 59.9492 7.32C59.5332 7.71467 59.3252 8.232 59.3252 8.872C59.3252 9.512 59.5332 10.04 59.9492 10.456C60.3758 10.8613 60.9145 11.064 61.5652 11.064C62.2158 11.064 62.7492 10.8613 63.1652 10.456ZM75.4688 9.848H69.4368C69.7034 10.8507 70.4554 11.352 71.6928 11.352C72.4821 11.352 73.0794 11.0853 73.4848 10.552L75.1488 11.512C74.3594 12.6533 73.1968 13.224 71.6608 13.224C70.3381 13.224 69.2768 12.824 68.4768 12.024C67.6768 11.224 67.2768 10.216 67.2768 9C67.2768 7.80533 67.6714 6.80267 68.4608 5.992C69.2394 5.18133 70.2528 4.776 71.5008 4.776C72.6848 4.776 73.6501 5.18133 74.3968 5.992C75.1648 6.80267 75.5488 7.80533 75.5488 9C75.5488 9.224 75.5221 9.50667 75.4688 9.848ZM69.4048 8.248H73.4848C73.3674 7.72533 73.1274 7.32533 72.7648 7.048C72.4128 6.77067 71.9914 6.632 71.5008 6.632C70.9461 6.632 70.4874 6.776 70.1248 7.064C69.7621 7.34133 69.5221 7.736 69.4048 8.248ZM78.5812 7.272C78.5812 7.61333 79.0665 7.90667 80.0372 8.152C80.3785 8.22667 80.6878 8.31733 80.9652 8.424C81.2425 8.52 81.5198 8.664 81.7972 8.856C82.0852 9.03733 82.3092 9.28267 82.4692 9.592C82.6292 9.90133 82.7092 10.2587 82.7092 10.664C82.7092 11.4853 82.3998 12.12 81.7812 12.568C81.1625 13.0053 80.3998 13.224 79.4932 13.224C77.8505 13.224 76.7305 12.5893 76.1332 11.32L77.9252 10.312C78.1705 11.0053 78.6932 11.352 79.4932 11.352C80.2292 11.352 80.5972 11.1227 80.5972 10.664C80.5972 10.3227 80.1118 10.0293 79.1412 9.784C78.7785 9.688 78.4692 9.592 78.2132 9.496C77.9572 9.4 77.6798 9.26133 77.3812 9.08C77.0825 8.888 76.8532 8.648 76.6932 8.36C76.5438 8.06133 76.4692 7.71467 76.4692 7.32C76.4692 6.53067 76.7572 5.912 77.3332 5.464C77.9198 5.00533 78.6452 4.776 79.5092 4.776C80.1598 4.776 80.7518 4.92533 81.2852 5.224C81.8185 5.512 82.2398 5.928 82.5492 6.472L80.7892 7.432C80.5332 6.888 80.1065 6.616 79.5092 6.616C79.2425 6.616 79.0185 6.68 78.8372 6.808C78.6665 6.92533 78.5812 7.08 78.5812 7.272ZM96.1627 10.776L97.6027 12.36L95.8427 13.368L94.8187 12.264C93.9547 12.904 92.952 13.224 91.8107 13.224C90.6693 13.224 89.7253 12.9253 88.9787 12.328C88.2533 11.72 87.8907 10.9093 87.8907 9.896C87.8907 9.224 88.0507 8.61067 88.3707 8.056C88.7013 7.49067 89.1653 7.032 89.7627 6.68C89.4 6.11467 89.2187 5.49067 89.2187 4.808C89.2187 3.85867 89.5493 3.08533 90.2107 2.488C90.872 1.88 91.7093 1.576 92.7227 1.576C93.5333 1.576 94.2533 1.784 94.8827 2.2C95.512 2.616 95.9813 3.208 96.2907 3.976L94.4027 5.064C94.104 4.168 93.5547 3.72 92.7547 3.72C92.3707 3.72 92.0507 3.832 91.7947 4.056C91.5493 4.28 91.4267 4.56267 91.4267 4.904C91.4267 5.192 91.4907 5.45867 91.6187 5.704C91.7573 5.93867 91.9973 6.23733 92.3387 6.6L94.7387 9.224C94.9733 8.744 95.1547 8.12533 95.2827 7.368L97.1387 8.424C96.9253 9.29867 96.6 10.0827 96.1627 10.776ZM91.9547 11.192C92.52 11.192 93.016 11.0587 93.4427 10.792L91.0267 8.168C91.0053 8.14667 90.9947 8.13067 90.9947 8.12C90.408 8.48267 90.1147 9 90.1147 9.672C90.1147 10.1413 90.2747 10.5147 90.5947 10.792C90.9147 11.0587 91.368 11.192 91.9547 11.192ZM108.48 13H105.744L101.984 1.8H104.384L107.12 10.408L109.84 1.8H112.256L108.48 13ZM113.951 4.04C113.61 4.04 113.311 3.91733 113.055 3.672C112.81 3.416 112.687 3.11733 112.687 2.776C112.687 2.43467 112.81 2.136 113.055 1.88C113.311 1.624 113.61 1.496 113.951 1.496C114.303 1.496 114.602 1.624 114.847 1.88C115.103 2.136 115.231 2.43467 115.231 2.776C115.231 3.11733 115.103 3.416 114.847 3.672C114.602 3.91733 114.303 4.04 113.951 4.04ZM114.991 13H112.927V5H114.991V13ZM122.944 5.944V1.8H125.008V13H122.944V12.056C122.336 12.8347 121.472 13.224 120.352 13.224C119.275 13.224 118.352 12.8187 117.584 12.008C116.827 11.1867 116.448 10.184 116.448 9C116.448 7.82667 116.827 6.82933 117.584 6.008C118.352 5.18667 119.275 4.776 120.352 4.776C121.472 4.776 122.336 5.16533 122.944 5.944ZM119.136 10.632C119.574 11.048 120.107 11.256 120.736 11.256C121.376 11.256 121.904 11.048 122.32 10.632C122.736 10.2053 122.944 9.66133 122.944 9C122.944 8.33867 122.736 7.8 122.32 7.384C121.904 6.95733 121.376 6.744 120.736 6.744C120.096 6.744 119.563 6.95733 119.136 7.384C118.72 7.8 118.512 8.33867 118.512 9C118.512 9.66133 118.72 10.2053 119.136 10.632ZM134.672 9.848H128.64C128.907 10.8507 129.659 11.352 130.896 11.352C131.685 11.352 132.283 11.0853 132.688 10.552L134.352 11.512C133.563 12.6533 132.4 13.224 130.864 13.224C129.541 13.224 128.48 12.824 127.68 12.024C126.88 11.224 126.48 10.216 126.48 9C126.48 7.80533 126.875 6.80267 127.664 5.992C128.443 5.18133 129.456 4.776 130.704 4.776C131.888 4.776 132.853 5.18133 133.6 5.992C134.368 6.80267 134.752 7.80533 134.752 9C134.752 9.224 134.725 9.50667 134.672 9.848ZM128.608 8.248H132.688C132.571 7.72533 132.331 7.32533 131.968 7.048C131.616 6.77067 131.195 6.632 130.704 6.632C130.149 6.632 129.691 6.776 129.328 7.064C128.965 7.34133 128.725 7.736 128.608 8.248ZM142.946 12.008C142.136 12.8187 141.133 13.224 139.938 13.224C138.744 13.224 137.741 12.8187 136.93 12.008C136.12 11.1973 135.714 10.1947 135.714 9C135.714 7.816 136.12 6.81867 136.93 6.008C137.752 5.18667 138.754 4.776 139.938 4.776C141.122 4.776 142.125 5.18667 142.946 6.008C143.768 6.82933 144.178 7.82667 144.178 9C144.178 10.184 143.768 11.1867 142.946 12.008ZM138.386 10.584C138.802 11 139.32 11.208 139.938 11.208C140.557 11.208 141.074 11 141.49 10.584C141.906 10.168 142.114 9.64 142.114 9C142.114 8.36 141.906 7.832 141.49 7.416C141.074 7 140.557 6.792 139.938 6.792C139.32 6.792 138.802 7 138.386 7.416C137.981 7.84267 137.778 8.37067 137.778 9C137.778 9.62933 137.981 10.1573 138.386 10.584Z" fill="#253746"/>
</svg>
