<svg width="126" height="126" viewBox="0 0 126 126" fill="none" xmlns="http://www.w3.org/2000/svg">
<g filter="url(#filter0_d_1238_23)">
<rect x="6" y="2" width="114" height="114" rx="20" fill="white" shape-rendering="crispEdges"/>
<rect x="5" y="1" width="116" height="116" rx="21" stroke="white" stroke-opacity="0.5" stroke-width="2" shape-rendering="crispEdges"/>
</g>
<g clip-path="url(#clip0_1238_23)">
<g filter="url(#filter1_d_1238_23)">
<path d="M63.25 29C60.1445 29 57.625 31.5195 57.625 34.625V44C57.625 47.1055 60.1445 49.625 63.25 49.625C66.3555 49.625 68.875 47.1055 68.875 44V34.625C68.875 31.5195 66.3555 29 63.25 29ZM55.75 41.6562C55.75 40.877 55.123 40.25 54.3438 40.25C53.5645 40.25 52.9375 40.877 52.9375 41.6562V44C52.9375 49.2207 56.8164 53.5332 61.8438 54.2187V56.1875H59.0312C58.252 56.1875 57.625 56.8145 57.625 57.5938C57.625 58.373 58.252 59 59.0312 59H63.25H67.4688C68.248 59 68.875 58.373 68.875 57.5938C68.875 56.8145 68.248 56.1875 67.4688 56.1875H64.6562V54.2187C69.6836 53.5332 73.5625 49.2207 73.5625 44V41.6562C73.5625 40.877 72.9355 40.25 72.1562 40.25C71.377 40.25 70.75 40.877 70.75 41.6562V44C70.75 48.1426 67.3926 51.5 63.25 51.5C59.1074 51.5 55.75 48.1426 55.75 44V41.6562Z" fill="#253746" fill-opacity="0.8" shape-rendering="crispEdges"/>
</g>
</g>
<g filter="url(#filter2_d_1238_23)">
<path d="M42.9935 67C43.7829 67 44.418 67.627 44.418 68.4062V95.5938C44.418 96.373 43.7829 97 42.9935 97C42.2041 97 41.569 96.373 41.569 95.5938V68.4062C41.569 67.627 42.2041 67 42.9935 67ZM54.8644 70.75C55.6539 70.75 56.289 71.377 56.289 72.1562V91.8438C56.289 92.623 55.6539 93.25 54.8644 93.25C54.075 93.25 53.4399 92.623 53.4399 91.8438V72.1562C53.4399 71.377 54.075 70.75 54.8644 70.75ZM36.8206 72.625C37.61 72.625 38.2451 73.252 38.2451 74.0312V89.9688C38.2451 90.748 37.61 91.375 36.8206 91.375C36.0312 91.375 35.3961 90.748 35.3961 89.9688V74.0312C35.3961 73.252 36.0312 72.625 36.8206 72.625ZM49.1664 74.5C49.9558 74.5 50.5909 75.127 50.5909 75.9062V88.0938C50.5909 88.873 49.9558 89.5 49.1664 89.5C48.377 89.5 47.7419 88.873 47.7419 88.0938V75.9062C47.7419 75.127 48.377 74.5 49.1664 74.5ZM31.1226 78.25C31.912 78.25 32.5471 78.877 32.5471 79.6562V84.3438C32.5471 85.123 31.912 85.75 31.1226 85.75C30.3331 85.75 29.6981 85.123 29.6981 84.3438V79.6562C29.6981 78.877 30.3331 78.25 31.1226 78.25ZM25.4245 80.125C26.2139 80.125 26.849 80.752 26.849 81.5312V82.4688C26.849 83.248 26.2139 83.875 25.4245 83.875C24.6351 83.875 24 83.248 24 82.4688V81.5312C24 80.752 24.6351 80.125 25.4245 80.125ZM60.5625 80.125C61.3519 80.125 61.987 80.752 61.987 81.5312V82.4688C61.987 83.248 61.3519 83.875 60.5625 83.875C59.7731 83.875 59.138 83.248 59.138 82.4688V81.5312C59.138 80.752 59.7731 80.125 60.5625 80.125Z" fill="#253746" fill-opacity="0.8"/>
<path d="M83.2598 71C84.0387 71 84.6653 71.4598 84.6653 72.0312V91.9688C84.6653 92.5402 84.0387 93 83.2598 93C82.4809 93 81.8543 92.5402 81.8543 91.9688V72.0312C81.8543 71.4598 82.4809 71 83.2598 71ZM94.9725 73.75C95.7513 73.75 96.378 74.2098 96.378 74.7812V89.2188C96.378 89.7902 95.7513 90.25 94.9725 90.25C94.1936 90.25 93.5669 89.7902 93.5669 89.2188V74.7812C93.5669 74.2098 94.1936 73.75 94.9725 73.75ZM77.1692 75.125C77.9481 75.125 78.5747 75.5848 78.5747 76.1562V87.8438C78.5747 88.4152 77.9481 88.875 77.1692 88.875C76.3903 88.875 75.7637 88.4152 75.7637 87.8438V76.1562C75.7637 75.5848 76.3903 75.125 77.1692 75.125ZM89.3504 76.5C90.1293 76.5 90.7559 76.9598 90.7559 77.5312V86.4688C90.7559 87.0402 90.1293 87.5 89.3504 87.5C88.5715 87.5 87.9449 87.0402 87.9449 86.4688V77.5312C87.9449 76.9598 88.5715 76.5 89.3504 76.5ZM71.5471 79.25C72.326 79.25 72.9526 79.7098 72.9526 80.2812V83.7188C72.9526 84.2902 72.326 84.75 71.5471 84.75C70.7682 84.75 70.1416 84.2902 70.1416 83.7188V80.2812C70.1416 79.7098 70.7682 79.25 71.5471 79.25ZM65.9251 80.625C66.7039 80.625 67.3306 81.0848 67.3306 81.6562V82.3438C67.3306 82.9152 66.7039 83.375 65.9251 83.375C65.1462 83.375 64.5195 82.9152 64.5195 82.3438V81.6562C64.5195 81.0848 65.1462 80.625 65.9251 80.625ZM100.595 80.625C101.373 80.625 102 81.0848 102 81.6562V82.3438C102 82.9152 101.373 83.375 100.595 83.375C99.8156 83.375 99.189 82.9152 99.189 82.3438V81.6562C99.189 81.0848 99.8156 80.625 100.595 80.625Z" fill="#253746" fill-opacity="0.8"/>
</g>
<defs>
<filter id="filter0_d_1238_23" x="0" y="0" width="126" height="126" filterUnits="userSpaceOnUse" color-interpolation-filters="sRGB">
<feFlood flood-opacity="0" result="BackgroundImageFix"/>
<feColorMatrix in="SourceAlpha" type="matrix" values="0 0 0 0 0 0 0 0 0 0 0 0 0 0 0 0 0 0 127 0" result="hardAlpha"/>
<feOffset dy="4"/>
<feGaussianBlur stdDeviation="2"/>
<feComposite in2="hardAlpha" operator="out"/>
<feColorMatrix type="matrix" values="0 0 0 0 0 0 0 0 0 0 0 0 0 0 0 0 0 0 0.25 0"/>
<feBlend mode="normal" in2="BackgroundImageFix" result="effect1_dropShadow_1238_23"/>
<feBlend mode="normal" in="SourceGraphic" in2="effect1_dropShadow_1238_23" result="shape"/>
</filter>
<filter id="filter1_d_1238_23" x="48.9375" y="29" width="28.625" height="38" filterUnits="userSpaceOnUse" color-interpolation-filters="sRGB">
<feFlood flood-opacity="0" result="BackgroundImageFix"/>
<feColorMatrix in="SourceAlpha" type="matrix" values="0 0 0 0 0 0 0 0 0 0 0 0 0 0 0 0 0 0 127 0" result="hardAlpha"/>
<feOffset dy="4"/>
<feGaussianBlur stdDeviation="2"/>
<feComposite in2="hardAlpha" operator="out"/>
<feColorMatrix type="matrix" values="0 0 0 0 0 0 0 0 0 0 0 0 0 0 0 0 0 0 0.25 0"/>
<feBlend mode="normal" in2="BackgroundImageFix" result="effect1_dropShadow_1238_23"/>
<feBlend mode="normal" in="SourceGraphic" in2="effect1_dropShadow_1238_23" result="shape"/>
</filter>
<filter id="filter2_d_1238_23" x="20" y="67" width="86" height="38" filterUnits="userSpaceOnUse" color-interpolation-filters="sRGB">
<feFlood flood-opacity="0" result="BackgroundImageFix"/>
<feColorMatrix in="SourceAlpha" type="matrix" values="0 0 0 0 0 0 0 0 0 0 0 0 0 0 0 0 0 0 127 0" result="hardAlpha"/>
<feOffset dy="4"/>
<feGaussianBlur stdDeviation="2"/>
<feComposite in2="hardAlpha" operator="out"/>
<feColorMatrix type="matrix" values="0 0 0 0 0 0 0 0 0 0 0 0 0 0 0 0 0 0 0.25 0"/>
<feBlend mode="normal" in2="BackgroundImageFix" result="effect1_dropShadow_1238_23"/>
<feBlend mode="normal" in="SourceGraphic" in2="effect1_dropShadow_1238_23" result="shape"/>
</filter>
<clipPath id="clip0_1238_23">
<rect width="22.5" height="30" fill="white" transform="translate(52 29)"/>
</clipPath>
</defs>
</svg>
