<svg width="49" height="50" viewBox="0 0 49 50" fill="none" xmlns="http://www.w3.org/2000/svg">
<g filter="url(#filter0_d_1238_46)">
<rect x="5" y="5" width="35" height="36" rx="8" fill="white"/>
<rect x="4" y="4" width="37" height="38" rx="9" stroke="#253746" stroke-width="2"/>
</g>
<path fill-rule="evenodd" clip-rule="evenodd" d="M21.9694 25.7577C20.9708 25.3693 20.2717 24.4889 20.2717 23.4645C20.2717 22.0798 21.5486 20.9583 23.125 20.9583C24.7014 20.9583 25.9783 22.0798 25.9783 23.4645C25.9783 24.4921 25.2757 25.3755 24.2663 25.7609C24.2663 25.7609 24.1828 27.2384 23.6611 27.9258C23.1393 28.6133 23.2938 28.4097 22.8784 28.8424C22.4631 29.2751 21.9837 29.4795 21.9837 29.4795C21.0314 30.1092 19.8438 30.482 18.5598 30.482H15.4676C15.0289 31.3686 14.0231 31.9857 12.8533 31.9857C11.2768 31.9857 10 30.8642 10 29.4795C10 28.0948 11.2768 26.9733 12.8533 26.9733C14.0231 26.9733 15.0289 27.5904 15.4676 28.477H18.5598C20.3395 28.477 21.8054 27.2834 21.9694 25.7577ZM22.5197 22.9329C22.6803 22.7919 22.898 22.7127 23.125 22.7127C23.352 22.7127 23.5698 22.7919 23.7303 22.9329C23.8908 23.0739 23.981 23.2651 23.981 23.4645C23.981 23.6639 23.8908 23.8552 23.7303 23.9962C23.5698 24.1372 23.352 24.2164 23.125 24.2164C22.898 24.2164 22.6803 24.1372 22.5197 23.9962C22.3592 23.8552 22.269 23.6639 22.269 23.4645C22.269 23.2651 22.3592 23.0739 22.5197 22.9329ZM13.4585 28.9478C13.6191 29.0888 13.7092 29.2801 13.7092 29.4795C13.7092 29.6789 13.6191 29.8701 13.4585 30.0111C13.298 30.1521 13.0803 30.2314 12.8533 30.2314C12.6262 30.2314 12.4085 30.1521 12.248 30.0111C12.0875 29.8701 11.9973 29.6789 11.9973 29.4795C11.9973 29.2801 12.0875 29.0888 12.248 28.9478C12.4085 28.8068 12.6262 28.7276 12.8533 28.7276C13.0803 28.7276 13.298 28.8068 13.4585 28.9478Z" fill="#253746"/>
<path fill-rule="evenodd" clip-rule="evenodd" d="M21.9694 21.2125C20.9708 21.6 20.2718 22.4781 20.2718 23.4999C20.2718 24.8812 21.5486 25.9999 23.125 25.9999C24.7014 25.9999 25.9783 24.8812 25.9783 23.4999C25.9783 22.4749 25.2757 21.5937 24.2663 21.2093C24.2663 21.2093 24.1828 19.7355 23.6611 19.0497C23.1393 18.364 23.2938 18.5671 22.8784 18.1355C22.4631 17.7039 21.9837 17.5 21.9837 17.5C21.0314 16.8719 19.8438 16.5 18.5598 16.5H15.4676C15.0289 15.6156 14.0231 15 12.8533 15C11.2768 15 10 16.1187 10 17.5C10 18.8812 11.2768 20 12.8533 20C14.0231 20 15.0289 19.3843 15.4676 18.5H18.5598C20.3395 18.5 21.8054 19.6906 21.9694 21.2125ZM22.5197 24.0303C22.6803 24.1709 22.898 24.2499 23.125 24.2499C23.352 24.2499 23.5698 24.1709 23.7303 24.0303C23.8908 23.8896 23.981 23.6989 23.981 23.4999C23.981 23.301 23.8908 23.1103 23.7303 22.9696C23.5698 22.829 23.352 22.7499 23.125 22.7499C22.898 22.7499 22.6803 22.829 22.5197 22.9696C22.3592 23.1103 22.269 23.301 22.269 23.4999C22.269 23.6989 22.3592 23.8896 22.5197 24.0303ZM13.4585 18.0303C13.6191 17.8897 13.7092 17.6989 13.7092 17.5C13.7092 17.3011 13.6191 17.1103 13.4585 16.9697C13.298 16.829 13.0803 16.75 12.8533 16.75C12.6262 16.75 12.4085 16.829 12.248 16.9697C12.0875 17.1103 11.9973 17.3011 11.9973 17.5C11.9973 17.6989 12.0875 17.8897 12.248 18.0303C12.4085 18.171 12.6262 18.25 12.8533 18.25C13.0803 18.25 13.298 18.171 13.4585 18.0303Z" fill="#253746"/>
<path fill-rule="evenodd" clip-rule="evenodd" d="M25.712 22.492L29.5457 22.492C29.996 21.6097 31.0098 21.0024 32.1796 21.0138C33.7559 21.0291 35.018 22.1629 34.9998 23.5475C34.9816 24.9321 33.6902 26.0412 32.1139 26.0259C30.9441 26.0145 29.9465 25.3876 29.5194 24.4969L25.712 24.497C25.712 24.2716 25.712 22.492 25.712 22.492ZM31.5345 24.0456C31.3758 23.903 31.2882 23.7109 31.2908 23.5115C31.2934 23.3121 31.3861 23.1218 31.5485 22.9823C31.7108 22.8429 31.9296 22.7658 32.1566 22.768C32.3836 22.7702 32.6003 22.8515 32.7589 22.9941C32.9176 23.1366 33.0053 23.3287 33.0026 23.5281C33 23.7275 32.9073 23.9179 32.745 24.0573C32.5826 24.1968 32.3639 24.2739 32.1369 24.2716C31.9099 24.2694 31.6932 24.1881 31.5345 24.0456Z" fill="#253746"/>
<defs>
<filter id="filter0_d_1238_46" x="0.8" y="0.8" width="47.4" height="48.4" filterUnits="userSpaceOnUse" color-interpolation-filters="sRGB">
<feFlood flood-opacity="0" result="BackgroundImageFix"/>
<feColorMatrix in="SourceAlpha" type="matrix" values="0 0 0 0 0 0 0 0 0 0 0 0 0 0 0 0 0 0 127 0" result="hardAlpha"/>
<feOffset dx="2" dy="2"/>
<feGaussianBlur stdDeviation="2.1"/>
<feComposite in2="hardAlpha" operator="out"/>
<feColorMatrix type="matrix" values="0 0 0 0 0.145098 0 0 0 0 0.215686 0 0 0 0 0.27451 0 0 0 0.25 0"/>
<feBlend mode="normal" in2="BackgroundImageFix" result="effect1_dropShadow_1238_46"/>
<feBlend mode="normal" in="SourceGraphic" in2="effect1_dropShadow_1238_46" result="shape"/>
</filter>
</defs>
</svg>
