<svg width="49" height="50" viewBox="0 0 49 50" fill="none" xmlns="http://www.w3.org/2000/svg">
<g filter="url(#filter0_d_1238_49)">
<rect x="5" y="5" width="35" height="36" rx="8" fill="white"/>
<rect x="4" y="4" width="37" height="38" rx="9" stroke="#253746" stroke-width="2"/>
</g>
<g clip-path="url(#clip0_1238_49)">
<path d="M31.416 18.6025C31.0645 19.1641 30.6836 19.7061 30.3125 20.1992C29.9463 19.7061 29.5605 19.1641 29.209 18.6025C28.3447 17.2158 27.9688 16.1904 27.9688 15.6875C27.9688 14.3936 29.0186 13.3438 30.3125 13.3438C31.6064 13.3438 32.6562 14.3936 32.6562 15.6875C32.6562 16.1904 32.2803 17.2158 31.416 18.6025ZM30.8691 23.2559C32.1143 21.7959 35 18.1387 35 15.6875C35 13.0996 32.9004 11 30.3125 11C27.7246 11 25.625 13.0996 25.625 15.6875C25.625 17.3135 26.8896 19.4619 28.1055 21.1562H26.0156C23.6426 21.1562 21.7188 23.0801 21.7188 25.4531C21.7188 27.8262 23.6426 29.75 26.0156 29.75H30.7031C31.7822 29.75 32.6562 30.624 32.6562 31.7031C32.6562 32.7822 31.7822 33.6562 30.7031 33.6562H18.6816C18.5498 33.8418 18.4131 34.0273 18.2813 34.2031C17.7588 34.8965 17.2412 35.5166 16.8164 36H30.7031C33.0762 36 35 34.0762 35 31.7031C35 29.3301 33.0762 27.4062 30.7031 27.4062H26.0156C24.9365 27.4062 24.0625 26.5322 24.0625 25.4531C24.0625 24.374 24.9365 23.5 26.0156 23.5H30.1611C30.4102 23.5537 30.6836 23.4707 30.8691 23.2559ZM15.8057 30.9414C15.4492 31.4785 15.0586 32.001 14.6875 32.4648C14.3164 32.001 13.9258 31.4785 13.5693 30.9414C12.7051 29.6377 12.3438 28.6709 12.3438 28.1875C12.3438 26.8936 13.3936 25.8438 14.6875 25.8438C15.9814 25.8438 17.0312 26.8936 17.0312 28.1875C17.0312 28.6709 16.6699 29.6377 15.8057 30.9414ZM16.7334 33.6562C17.998 32.04 19.375 29.8818 19.375 28.1875C19.375 25.5996 17.2754 23.5 14.6875 23.5C12.0996 23.5 10 25.5996 10 28.1875C10 30.6533 12.9199 34.0957 14.1504 35.4336C14.4434 35.751 14.9316 35.751 15.2197 35.4336C15.2246 35.4287 15.2295 35.4238 15.2344 35.4189C15.249 35.4043 15.2637 35.3848 15.2783 35.3701C15.415 35.2188 15.5713 35.043 15.7422 34.8477C15.7471 34.8428 15.7471 34.8428 15.752 34.8379C16.0498 34.4961 16.3867 34.0957 16.7285 33.6562H16.7334Z" fill="#253746"/>
</g>
<defs>
<filter id="filter0_d_1238_49" x="0.8" y="0.8" width="47.4" height="48.4" filterUnits="userSpaceOnUse" color-interpolation-filters="sRGB">
<feFlood flood-opacity="0" result="BackgroundImageFix"/>
<feColorMatrix in="SourceAlpha" type="matrix" values="0 0 0 0 0 0 0 0 0 0 0 0 0 0 0 0 0 0 127 0" result="hardAlpha"/>
<feOffset dx="2" dy="2"/>
<feGaussianBlur stdDeviation="2.1"/>
<feComposite in2="hardAlpha" operator="out"/>
<feColorMatrix type="matrix" values="0 0 0 0 0.145098 0 0 0 0 0.215686 0 0 0 0 0.27451 0 0 0 0.25 0"/>
<feBlend mode="normal" in2="BackgroundImageFix" result="effect1_dropShadow_1238_49"/>
<feBlend mode="normal" in="SourceGraphic" in2="effect1_dropShadow_1238_49" result="shape"/>
</filter>
<clipPath id="clip0_1238_49">
<rect width="25" height="25" fill="white" transform="translate(10 11)"/>
</clipPath>
</defs>
</svg>
