<svg width="12" height="15" viewBox="0 0 12 15" fill="none" xmlns="http://www.w3.org/2000/svg">
  <g clip-path="url(#clip0_191_36)">
    <path d="M9.84375 5.625C9.84375 3.2959 7.9541 1.40625 5.625 1.40625C3.2959 1.40625 1.40625 3.2959 1.40625 5.625C1.40625 5.98828 1.53809 6.55078 1.85449 7.30078C2.16211 8.02734 2.59863 8.83008 3.09961 9.6416C3.93457 10.9951 4.90137 12.3018 5.625 13.2334C6.35156 12.3018 7.31836 10.9951 8.15039 9.6416C8.65137 8.83008 9.08789 8.02734 9.39551 7.30078C9.71191 6.55078 9.84375 5.98828 9.84375 5.625ZM11.25 5.625C11.25 8.18555 7.82227 12.7441 6.31934 14.625C5.95898 15.0732 5.29102 15.0732 4.93066 14.625C3.42773 12.7441 0 8.18555 0 5.625C0 2.51953 2.51953 0 5.625 0C8.73047 0 11.25 2.51953 11.25 5.625ZM6.5625 5.625C6.5625 5.37636 6.46373 5.1379 6.28791 4.96209C6.1121 4.78627 5.87364 4.6875 5.625 4.6875C5.37636 4.6875 5.1379 4.78627 4.96209 4.96209C4.78627 5.1379 4.6875 5.37636 4.6875 5.625C4.6875 5.87364 4.78627 6.1121 4.96209 6.28791C5.1379 6.46373 5.37636 6.5625 5.625 6.5625C5.87364 6.5625 6.1121 6.46373 6.28791 6.28791C6.46373 6.1121 6.5625 5.87364 6.5625 5.625ZM3.28125 5.625C3.28125 5.0034 3.52818 4.40726 3.96772 3.96772C4.40726 3.52818 5.0034 3.28125 5.625 3.28125C6.2466 3.28125 6.84274 3.52818 7.28228 3.96772C7.72182 4.40726 7.96875 5.0034 7.96875 5.625C7.96875 6.2466 7.72182 6.84274 7.28228 7.28228C6.84274 7.72182 6.2466 7.96875 5.625 7.96875C5.0034 7.96875 4.40726 7.72182 3.96772 7.28228C3.52818 6.84274 3.28125 6.2466 3.28125 5.625Z" fill="url(#paint0_linear_191_36)" />
  </g>
  <defs>
    <linearGradient id="paint0_linear_191_36" x1="-0.5" y1="8" x2="11.5" y2="8" gradientUnits="userSpaceOnUse">
      <stop stop-color="#253746" />
      <stop offset="1" stop-color="#253746" />
    </linearGradient>
    <clipPath id="clip0_191_36">
      <rect width="11.25" height="15" rx="5" fill="white" />
    </clipPath>
  </defs>
</svg>